<svg width="244" height="166" viewBox="0 0 244 166" fill="none"  xmlns="http://www.w3.org/2000/svg">    <path d="M122 104.68C109.712 104.68 100.304 100.264 93.7759 91.432C87.3439 82.6 84.1279 69.736 84.1279 52.84C84.1279 35.944 87.3439 23.08 93.7759 14.248C100.304 5.416 109.712 1 122 1C134.288 1 143.648 5.416 150.08 14.248M159.872 52.84C159.872 69.736 156.608 82.6 150.08 91.432M165.389 72.568V88.12H209.309V103.24M232.493 103.24V88.12H242.861V69.832H232.493V41M50.2708 113.84V123.056H27.3748V133.208H47.8228V142.424M27.3748 142.424V155.024H50.2708V164.24H15.7828M57.3374 113.84H75.8414C87.4094 113.84 93.1935 118.592 93.1935 128.096C93.1935 131.36 92.5215 134.168 91.1775 136.52C89.8815 138.872 87.9854 140.624 85.4894 141.776V141.92C86.3534 142.544 87.0254 143.144 87.5054 143.72C87.9854 144.296 88.3694 144.92 88.6574 145.592L96.0014 164.24H83.7615L78.1454 149.192C77.6174 147.848 76.9214 146.96 76.0574 146.528C75.2414 146.096 73.7535 145.88 71.5935 145.88H68.9295V164.24H57.3374V139.04M100.58 113.84H119.084C130.652 113.84 136.436 118.592 136.436 128.096C136.436 131.36 135.764 134.168 134.42 136.52C133.124 138.872 131.228 140.624 128.732 141.776V141.92C129.596 142.544 130.268 143.144 130.748 143.72C131.228 144.296 131.612 144.92 131.9 145.592M139.244 164.24H127.004L121.388 149.192C120.86 147.848 120.164 146.96 119.3 146.528C118.484 146.096 116.996 145.88 114.836 145.88H112.172V155.06V164.24M100.58 164.24V139.04M184.718 125.144C182.894 121.256 180.254 118.28 176.798 116.216C173.342 114.152 169.214 113.12 164.414 113.12C159.614 113.12 155.486 114.152 152.03 116.216C148.574 118.28 145.934 121.256 144.11 125.144C142.286 129.032 141.374 133.664 141.374 139.04C141.374 144.416 142.286 149.048 144.11 152.936C145.934 156.824 148.574 159.8 152.03 161.864C155.486 163.928 159.614 164.96 164.414 164.96C169.214 164.96 173.342 163.928 176.798 161.864C180.254 159.8 182.894 156.824 184.718 152.936M155.99 126.728C158.054 123.752 160.862 122.264 164.414 122.264C167.966 122.264 170.75 123.752 172.766 126.728C174.83 129.704 175.862 133.808 175.862 139.04C175.862 144.272 174.83 148.376 172.766 151.352C170.75 154.328 167.966 155.816 164.414 155.816C160.862 155.816 158.054 154.328 155.99 151.352M194.236 113.84H212.74C224.308 113.84 230.092 118.592 230.092 128.096C230.092 131.36 229.42 134.168 228.076 136.52C226.78 138.872 224.884 140.624 222.388 141.776V141.92C223.252 142.544 223.924 143.144 224.404 143.72C224.884 144.296 225.268 144.92 225.556 145.592M232.9 164.24H220.66L215.044 149.192C214.516 147.848 213.82 146.96 212.956 146.528C212.14 146.096 210.652 145.88 208.492 145.88H205.828M205.828 164.24H194.236V139.04M41.0883 7.5L44.1949 2.44H68.2429V30M36.9452 14.248L25.7566 32.4717M15.7828 48.7167L11.925 55L1.13892 72.568V88.12H45.0589V103.24H68.2429V88.12H78.6109V69.832H68.2429V56.416M33.0268 113.84H15.7828V155.024M176 52.84L195.208 24L208.445 2.44H232.493V30M45.0589 69.832V34.696L23.0269 69.832H45.0589ZM122 88.12C126.992 88.12 130.688 85.288 133.088 79.624C135.488 73.864 136.688 64.936 136.688 52.84C136.688 40.744 135.488 31.864 133.088 26.2C130.688 20.44 126.992 17.56 122 17.56C117.008 17.56 113.312 20.44 110.912 26.2C108.512 31.864 107.312 40.744 107.312 52.84C107.312 64.936 108.512 73.864 110.912 79.624C113.312 85.288 117.008 88.12 122 88.12ZM209.309 69.832V34.696L187.277 69.832H209.309ZM74.5454 136.736C76.8974 136.736 78.6975 136.136 79.9454 134.936C81.2415 133.688 81.8895 131.912 81.8895 129.608C81.8895 125.24 79.3935 123.056 74.4015 123.056H68.9295V136.736H74.5454ZM117.788 136.736C120.14 136.736 121.94 136.136 123.188 134.936C124.484 133.688 125.132 131.912 125.132 129.608C125.132 125.24 122.636 123.056 117.644 123.056H112.172V136.736H117.788ZM211.444 136.736C213.796 136.736 215.596 136.136 216.844 134.936C218.14 133.688 218.788 131.912 218.788 129.608C218.788 125.24 216.292 123.056 211.3 123.056H205.828V136.736H211.444Z" stroke="#000" stroke-width="2" stroke-linecap="round" stroke-linejoin="round" class="svg-elem-1"></path></svg>